<?xml version="1.0" encoding="UTF-8"?>
<svg version="1.1" xmlns="http://www.w3.org/2000/svg" width="1875" height="1875">
<path d="M0 0 C1.59609964 1.19141926 3.18058604 2.3986421 4.75 3.625 C5.36488281 4.08648437 5.97976563 4.54796875 6.61328125 5.0234375 C46.07698903 36.41296139 62.18743029 102.14885632 74.75 148.625 C74.95069092 149.36695618 75.15138184 150.10891235 75.3581543 150.87335205 C94.31773315 221.30678953 106.91585059 294.23203071 114.28100586 366.8059082 C114.3252637 370.40547954 114.3252637 370.40547954 115.75 371.625 C115.93473877 370.4589624 116.11947754 369.2929248 116.30981445 368.09155273 C150.511131 153.32991318 150.511131 153.32991318 200.96484375 112.875 C208.72391798 107.44195021 216.36844996 106.31570675 225.75 107.625 C242.50707242 112.70976276 252.99955511 128.81476669 260.87109375 143.5078125 C262.93850059 147.49709031 264.85536863 151.55149454 266.75 155.625 C267.07178223 156.30336914 267.39356445 156.98173828 267.72509766 157.68066406 C309.75122778 246.5812894 320.83885139 353.97769304 345.75 604.625 C348.30490423 595.53742311 350.81935026 586.4429023 353.1875 577.3046875 C370.10480042 512.25645254 390.90274494 439.10573177 438.75 389.625 C439.39839844 388.92503906 440.04679688 388.22507812 440.71484375 387.50390625 C447.75249485 380.06883485 456.3954129 374.67865441 465.75 370.625 C466.81347656 370.14353516 466.81347656 370.14353516 467.8984375 369.65234375 C479.01404341 365.4596152 494.18588195 365.9606546 505.1015625 370.37890625 C505.97554687 370.79011719 506.84953125 371.20132812 507.75 371.625 C508.64460937 372.02589844 509.53921875 372.42679687 510.4609375 372.83984375 C559.39961429 397.02873128 582.98186823 466.78913249 599.21630859 514.50439453 C609.22600956 544.14443059 617.40334212 574.22578843 624.75 604.625 C625.97965275 592.40286433 627.04838468 580.17160472 628.01171875 567.92578125 C635.50797824 472.90823969 645.77091162 378.04437766 722.75 124.625 C723.59111328 123.54025391 723.59111328 123.54025391 724.44921875 122.43359375 C730.79319446 114.64041147 738.84580552 108.4021309 749.046875 107.25390625 C761.34188098 107.01746383 768.49030363 110.67105727 777.31640625 119.0703125 C828.84873737 173.16685271 851.17474903 298.81621413 854.875 372.9375 C854.813125 374.2678125 854.813125 374.2678125 854.75 375.625 C855.41 375.625 856.07 375.625 856.75 375.625 C856.71241577 373.72814453 856.71241577 373.72814453 856.67407227 371.79296875 C856.67830855 366.44039589 857.27263816 361.2392215 857.96484375 355.9375 C858.09556274 354.90695496 858.22628174 353.87640991 858.36096191 352.81463623 C858.79548608 349.4170512 859.24035818 346.02094638 859.6875 342.625 C859.84139191 341.44683716 859.99528381 340.26867432 860.15383911 339.05480957 C872.33787356 246.13547834 886.7098949 146.60376308 931.79833984 51.40185547 C932.80078566 49.53017753 933.77125689 47.64410647 934.73828125 45.75390625 C944.73296714 26.36916926 957.33808822 7.45509202 976.75 -3.375 C977.51828125 -3.81199219 978.2865625 -4.24898438 979.078125 -4.69921875 C987.61878798 -8.83882581 998.03600186 -8.81011296 1007.125 -6.52734375 C1036.72247837 4.84147932 1053.41187109 38.48798761 1065.75 65.625 C1079.5779094 97.41290026 1089.66773265 130.78566686 1098.17114258 164.34143066 C1098.73653395 166.57187696 1099.30662891 168.80108425 1099.87695312 171.03027344 C1106.75171355 198.04214824 1111.93554078 225.38557574 1117.0760498 252.77185059 C1118.25781699 259.06523968 1119.47772994 265.34925766 1120.75 271.625 C1121.05067383 270.05878906 1121.05067383 270.05878906 1121.35742188 268.4609375 C1141.64017003 163.22541377 1141.64017003 163.22541377 1168.75 127.625 C1169.17756592 127.03025879 1169.60513184 126.43551758 1170.0456543 125.82275391 C1173.94195494 120.66934023 1179.63618708 116.66293764 1185.75 114.625 C1194.9590177 113.55240226 1201.54978708 115.58363602 1208.8359375 121.24609375 C1269.09720494 176.62453122 1271.32856873 318.4932735 1282.9375 451.25 C1283.01640472 452.45020782 1283.09530945 453.65041565 1283.17660522 454.88699341 C1283.72458035 463.33280797 1284.20171753 471.78121838 1284.62897491 480.23387146 C1284.71220629 481.87829855 1284.79644558 483.52267484 1284.88152313 485.16700745 C1286.82143893 522.81669612 1287.06524478 560.41687321 1287.00713855 598.10439813 C1286.99959441 603.56392723 1287.00232475 609.02338371 1287.01074219 614.48291016 C1287.06737799 652.24423576 1286.70174074 689.90281831 1284.75 727.625 C1284.67119346 729.18200426 1284.59243528 730.73901098 1284.51373291 732.29602051 C1284.05804496 741.20192057 1283.52250101 750.10163818 1282.9375 759 C1282.85351959 760.29745148 1282.76953918 761.59490295 1282.68301392 762.93167114 C1276.48465318 858.32060234 1269.47657141 963.47045931 1208.125 1089.1875 C1201.9043805 1094.3463241 1196.51066106 1096.23293151 1188.453125 1095.96875 C1180.06671669 1094.90227033 1173.09563818 1088.92803479 1168.03857422 1082.42382812 C1151.43649806 1058.65807493 1142.58782201 1031.2804045 1134.75 1003.625 C1133.35796037 1010.90648456 1132.21949827 1018.17942297 1131.3046875 1025.53515625 C1131.03449187 1027.65484575 1130.7637993 1029.77447195 1130.49267578 1031.89404297 C1130.35186584 1032.99955505 1130.21105591 1034.10506714 1130.065979 1035.24407959 C1121.19589938 1104.50681761 1109.22661111 1173.48990818 1089.75 1240.625 C1089.39083496 1241.8634668 1089.03166992 1243.10193359 1088.66162109 1244.37792969 C1075.23157627 1290.1739604 1056.74994809 1352.35120495 1012.77734375 1378.14453125 C1003.31014373 1382.77429745 992.01403712 1383.41490036 982 1380.0625 C949.75298071 1366.32412492 932.50431699 1328.7030364 920.13720703 1298.171875 C902.24223352 1252.41718032 890.16543506 1205.02013271 880.13264465 1157.00794983 C879.96439682 1156.20844406 879.79614899 1155.40893829 879.62280273 1154.58520508 C879.47753647 1153.88929764 879.3322702 1153.1933902 879.18260193 1152.47639465 C878.73028459 1150.41239436 878.73028459 1150.41239436 877.75 1147.625 C877.66056374 1148.7769838 877.66056374 1148.7769838 877.56932068 1149.95223999 C870.40077584 1242.01789301 861.25327857 1333.9777043 798.75 1577.625 C798.3802002 1578.38377441 798.01040039 1579.14254883 797.62939453 1579.92431641 C789.45766862 1596.49820735 778.86548633 1614.79196568 760.75 1621.625 C753.28279329 1623.85509063 745.71600868 1623.03569283 738.75 1619.625 C735.52630578 1617.52471437 732.63617945 1615.16441112 729.75 1612.625 C729.16605469 1612.13515625 728.58210938 1611.6453125 727.98046875 1611.140625 C684.30138956 1571.45096991 672.48983719 1485.82515025 662.10668945 1430.46582031 C661.93613037 1429.55799805 661.76557129 1428.65017578 661.58984375 1427.71484375 C661.37896118 1426.55263306 661.37896118 1426.55263306 661.16381836 1425.36694336 C660.9065257 1423.60668312 660.9065257 1423.60668312 659.75 1422.625 C659.66976089 1423.28769394 659.58952179 1423.95038788 659.5068512 1424.63316345 C648.43084509 1515.88833552 634.30027946 1607.30517836 535.75 1842.625 C534.96625 1843.5015625 534.1825 1844.378125 533.375 1845.28125 C521.38842283 1858.05641777 506.32159072 1867.53493301 488.53662109 1868.15917969 C479.34510831 1868.24858229 471.14702864 1867.67698043 462.75 1863.625 C461.86957031 1863.23570313 460.98914063 1862.84640625 460.08203125 1862.4453125 C411.71469139 1838.85489277 388.40627821 1769.68679016 372.14448547 1722.65016174 C341.2413343 1632.57242436 325.49113955 1537.81338904 310.75 1420.625 C310.49943848 1421.87482666 310.24887695 1423.12465332 309.99072266 1424.41235352 C281.56630369 1565.67825529 281.56630369 1565.67825529 247.75 1605.625 C247.18152344 1606.36492187 246.61304688 1607.10484375 246.02734375 1607.8671875 C239.95155125 1615.47988259 231.12421881 1621.60212449 221.328125 1622.9609375 C209.45630996 1623.16012903 201.13611654 1617.69745659 192.76171875 1609.734375 C135.5521113 1549.65855475 125.4954543 1424.79549987 96.0513916 1185.03894043 C95.68685676 1180.90976024 95.31854479 1176.78092343 94.9498291 1172.65211487 C94.20505313 1164.31072868 93.46942845 1155.96861528 92.75 1147.625 C92.42745239 1149.19568237 92.42745239 1149.19568237 92.09838867 1150.7980957 C84.38629212 1188.19591725 75.7728658 1225.35060579 63.75 1261.625 C63.39228516 1262.71973633 63.03457031 1263.81447266 62.66601562 1264.94238281 C50.00579786 1303.52536243 31.71995848 1358.62725815 -7.25 1378.625 C-16.7405308 1382.89573886 -27.51594577 1383.0203952 -37.4375 1380.125 C-67.33556816 1368.720174 -83.59108385 1332.79885343 -95.89453125 1305.69335938 C-110.62222066 1272.35445438 -120.50059519 1236.92397416 -129.25 1201.625 C-129.56775391 1200.35237305 -129.88550781 1199.07974609 -130.21289062 1197.76855469 C-146.06647309 1133.74978543 -155.86585455 1068.11132303 -163.25 1002.625 C-163.51103516 1003.45410889 -163.77207031 1004.28321777 -164.04101562 1005.13745117 C-187.92088545 1080.73438583 -187.92088545 1080.73438583 -211.5625 1094.5625 C-217.88965909 1096.38557974 -224.32338825 1096.85477151 -230.4375 1094.0625 C-260.4728769 1076.35872094 -270.9383587 1027.72986756 -278.96606445 996.73876953 C-301.68752535 907.90091754 -309.65377332 815.08414278 -314.09570312 723.74871826 C-314.24587286 720.70855344 -314.40510779 717.66898692 -314.56640625 714.62939453 C-318.45166454 639.98108838 -318.31754984 564.25875909 -314.25 489.625 C-314.11427908 487.04671968 -313.97870648 484.46843156 -313.84326172 481.89013672 C-309.30242694 396.31959187 -301.63314743 310.25750216 -282.25 226.625 C-282.01310455 225.59910767 -282.01310455 225.59910767 -281.77142334 224.55249023 C-261.18185094 135.81889759 -261.18185094 135.81889759 -232.9375 117.625 C-227.18498709 114.26450565 -221.80320608 113.88539931 -215.25 114.625 C-200.47808685 119.26017509 -192.82307153 133.11775411 -185.87890625 145.93359375 C-166.79734535 182.73539501 -158.20039106 225.81735585 -150.75561523 266.27880859 C-150.35037807 268.63153523 -150.35037807 268.63153523 -149.25 270.625 C-149.02449463 269.355354 -148.79898926 268.08570801 -148.56665039 266.77758789 C-143.42308164 237.90993656 -137.90069449 209.18550452 -131.25 180.625 C-131.08604736 179.91698242 -130.92209473 179.20896484 -130.75317383 178.47949219 C-96.56743021 31.06321915 -96.56743021 31.06321915 -45.25 -2.375 C-30.41527006 -10.36632774 -13.90948637 -9.41918672 0 0 Z " fill="#A238FF" transform="translate(452.25,7.375)"/>
<path d="M0 0 C2.09436409 1.49654752 3.8971791 3.08542926 5.7265625 4.89453125 C6.23574219 5.36632812 6.74492188 5.838125 7.26953125 6.32421875 C17.63720568 17.05323304 22.40613561 33.0076295 26.7265625 46.89453125 C26.98679199 47.72774902 27.24702148 48.5609668 27.51513672 49.41943359 C39.41378298 88.32959135 43.07404016 129.4764783 45.7265625 169.89453125 C45.80003906 171.00328613 45.87351562 172.11204102 45.94921875 173.25439453 C50.39752974 244.88876438 56.6208065 372.51201616 6.61328125 430.96875 C2.32434624 435.34648284 -1.76453443 437.63938857 -7.9609375 438.26953125 C-14.91798949 438.1296271 -19.59064478 433.85628477 -24.2734375 429.08203125 C-53.09658292 394.94638452 -56.20654972 334.64132637 -59.9609375 292.26953125 C-60.02178528 291.58648926 -60.08263306 290.90344727 -60.14532471 290.19970703 C-60.56390854 285.43415815 -60.93059138 280.66607762 -61.2734375 275.89453125 C-61.37060059 274.59741211 -61.46776367 273.30029297 -61.56787109 271.96386719 C-62.74654166 254.48001736 -62.51936004 236.90945501 -62.5234375 219.39453125 C-62.52387936 218.52572327 -62.52432121 217.65691528 -62.52477646 216.76177979 C-62.53198598 189.71010396 -62.23232488 162.81322396 -59.2734375 135.89453125 C-59.18622437 135.08975342 -59.09901123 134.28497559 -59.00915527 133.45581055 C-47.23088681 25.7854067 -47.23088681 25.7854067 -18.66796875 1.53125 C-13.24785312 -2.21519572 -5.95002706 -2.89322622 0 0 Z " fill="#A238FF" transform="translate(62.2734375,346.10546875)"/>
<path d="M0 0 C9.84617367 6.71015583 14.75948665 16.97828332 19.375 27.5625 C19.6726123 28.24473633 19.97022461 28.92697266 20.27685547 29.62988281 C35.71489869 66.05092176 39.99359152 107.43556315 43.61328125 146.453125 C43.70815575 147.45765717 43.70815575 147.45765717 43.8049469 148.48248291 C45.12365417 163.24022918 45.54728906 177.94832627 45.578125 192.7578125 C45.58236607 194.16735514 45.58236607 194.16735514 45.58669281 195.60537338 C45.60157575 200.59759536 45.61086873 205.58978935 45.61523438 210.58203125 C45.61957806 214.61304987 45.63332482 218.64384951 45.65625 222.67480469 C45.84172101 255.99670117 44.68741733 289.08210727 40.0625 322.125 C39.95895203 322.88726898 39.85540405 323.64953796 39.74871826 324.43490601 C27.87925694 411.47873565 27.87925694 411.47873565 4.375 432.5625 C-1.12990263 436.66419216 -5.7132738 438.45680838 -12.625 437.5625 C-26.00522224 431.69398147 -32.39471854 418.27339656 -37.75 405.4375 C-51.1207801 370.99774797 -56.30796349 333.75775573 -59.875 297.1875 C-59.99962616 295.91323151 -59.99962616 295.91323151 -60.12677002 294.61322021 C-60.36639455 292.13067633 -60.5989605 289.64759235 -60.828125 287.1640625 C-60.89456207 286.461745 -60.96099915 285.75942749 -61.02944946 285.03582764 C-62.34322638 270.32722477 -62.79427469 255.63072355 -62.828125 240.87109375 C-62.83095238 240.01203997 -62.83377975 239.15298618 -62.83669281 238.26790047 C-62.85155443 233.70130249 -62.86085991 229.13473491 -62.86523438 224.56811523 C-62.86956954 220.89711294 -62.88328551 217.22635226 -62.90625 213.55541992 C-63.90170943 50.94199269 -63.90170943 50.94199269 -23.58203125 5.453125 C-16.45397163 -1.43306434 -9.5314178 -3.77970016 0 0 Z " fill="#A238FF" transform="translate(1829.625,346.4375)"/>
</svg>
